<svg width="22" height="13" viewBox="0 0 22 13" fill="none" xmlns="http://www.w3.org/2000/svg">
<path d="M0.0976562 6.24001C0.0976563 2.99201 2.01766 0.208008 5.72966 0.208008C8.73766 0.208008 10.3857 2.09601 10.3857 3.21601C10.3857 3.95201 9.98566 4.40001 9.20166 4.40001C7.68166 4.40001 8.12966 2.32001 5.72966 2.32001C4.08166 2.32001 2.72166 3.74401 2.72166 6.24001C2.72166 8.33601 3.55366 10.16 5.82566 10.16C7.88966 10.16 7.84166 7.95201 9.10566 7.95201C9.74566 7.95201 10.3857 8.32001 10.3857 8.96001C10.3857 10.624 8.36966 12.272 5.82566 12.272C2.22566 12.272 0.0976562 10.208 0.0976562 6.24001Z" fill="#F4206A"/>
<path d="M15.8525 4.83201L18.0445 5.32801C20.4445 5.87201 21.0525 7.29601 21.0525 8.64001C21.0525 10.72 19.4845 12.272 16.3165 12.272C12.9885 12.272 11.5005 10.608 11.5005 9.36001C11.5005 8.72001 11.9645 8.27201 12.6045 8.27201C14.0285 8.27201 13.6605 10.352 16.3165 10.352C17.6765 10.352 18.4285 9.60001 18.4285 8.83201C18.4285 8.36801 18.2045 7.85601 17.3085 7.63201L14.3485 6.88001C11.9645 6.27201 11.5325 4.96001 11.5325 3.72801C11.5325 1.16801 13.9005 0.208008 16.1245 0.208008C18.1725 0.208008 20.5885 1.36001 20.5885 2.89601C20.5885 3.55201 20.0285 3.93601 19.3885 3.93601C18.1725 3.93601 18.3965 2.22401 15.9485 2.22401C14.7325 2.22401 14.0605 2.78401 14.0605 3.58401C14.0605 4.38401 15.0205 4.64001 15.8525 4.83201Z" fill="#F49B5B"/>
</svg>
